<?xml version="1.0"?>
<!DOCTYPE svg PUBLIC "-//W3C//DTD SVG 1.1//EN"   "http://www.w3.org/Graphics/SVG/1.1/DTD/svg11.dtd">

<svg xmlns="http://www.w3.org/2000/svg" version="1.1"  width="12cm" height="9cm" viewBox="0 0 400 300">
	<title>Q2</title>
	<desc>e-16-103</desc>
 
	
	<path d="M 57 142 A 1 1 0 0 0 225 145 A 1 1 0 0 0 57 142z" stroke="black" fill="transparent" stroke-width="1" stroke-dasharray="700"
        stroke-dashoffset="8">
	<animate attributeName="stroke-dashoffset"
            from="800"
			to="150"
			begin="0s"
            dur="2s"
            />
	</path>

	

<path d="M 126 225 L 126 219 L 126 195 L 125 188 L 124 183 L 123 182 L 121 179 L 119 177 L 117 176 L 113 173 L 115 165 L 116 161 L 113 161 L 113 164 L 112 165 L 110 166 L 107 166 L 105 164 L 103 161 L 103 159 L 103 156 L 104 154 L 106 152 L 108 151 L 110 151 L 112 152 L 113 153 L 113 155 L 113 156 L 116 156 L 117 146 L 117 132 L 114 132 L 114 134 L 113 137 L 112 139 L 110 140 L 107 139 L 105 138 L 104 136 L 103 134 L 103 132 L 103 130 L 103 129 L 105 126 L 107 125 L 110 125 L 112 125 L 113 127 L 113 130 L 117 130 L 117 116 L 117 109 L 113 109 L 113 111 L 112 113 L 111 114 L 109 114 L 107 114 L 105 113 L 103 110 L 103 108 Q 103 107 103 106 Q 103.5 104 104 102 Q 105.5 100.5 107 99 Q 109 99 111 99 Q 112 99.5 113 100 Q 113.5 101 114 102 Q 114 103.5 114 105 Q 115 105 116 105 Q 115 98 114 91 Q 114 90 114 89 Q 140.5 89 167 89 Q 167.5 89.5 168 90 Q 167 97.5 166 105 Q 167 105 168 105 Q 168.5 105 169 105 Q 168.5 103.5 168 102 Q 169 101 170 100 Q 172 99.5 174 99 Q 175.5 100 177 101 Q 178 102.5 179 104 Q 179 106 179 108 Q 178.5 110 178 112 Q 176.5 113 175 114 Q 173 114.5 171 115 Q 170 114 169 113 Q 168.5 111 168 109 Q 166.5 109 165 109 Q 164.5 119.5 164 130 Q 166 130 168 130 Q 168.5 128 169 126 Q 170.5 125 172 124 Q 174 125 176 126 Q 177.5 127.5 179 129 Q 179.5 131 180 133 Q 178.5 135.5 177 138 Q 175.5 139 174 140 Q 172 140 170 140 Q 169 138.5 168 137 Q 168 135.5 168 134 Q 166.5 134 165 134 Q 165.5 145 166 156 Q 167 156 168 156 Q 168.5 154 169 152 Q 170.5 151.5 172 151 Q 174 151.5 176 152 Q 177.5 153.5 179 155 Q 179 156.5 179 158 Q 179 160 179 162 Q 177.5 163.5 176 165 Q 174 166 172 167 Q 170.5 166 169 165 Q 168.5 163 168 161 Q 166.5 161 165 161 Q 166.5 166.5 168 172 Q 168 172.5 168 173 Q 165.5 175 163 177 Q 161 179 159 181 Q 158 183 157 185 Q 156.5 188.5 156 192 Q 156 196 156 200 Q 156 212.5 156 225 Q 156 225 156 225 z" 
stroke="black" fill="transparent" stroke-width="1" stroke-dasharray="700"
        stroke-dashoffset="8">
	<animate attributeName="stroke-dashoffset"
            from="800"
			to="150"
			begin="0"
            dur="2s"
            />
	</path>

	<path d="M 140 165 L 140 161 L 137 158 L 134 159 L 130 159 L 127 161 L 124 164 L 119 167 L 114 168 L 108 169 L 102 168 L 94 165 L 98 170 L 102 173 L 106 175 L 112 176 L 118 176 L 125 177 L 131 176 L 135 175 L 139 172 L 140 168 L 140 165 M 141 163 L 142 160 L 145 159 L 148 159 L 152 160 L 156 163 L 163 167 L 171 168 L 176 168 L 182 167 L 187 165 L 184 169 L 181 172 L 176 175 L 169 176 L 161 177 L 153 177 L 146 175 L 142 172 L 141 167 L 141 163 z" 
stroke="black" fill="transparent" stroke-width="1" stroke-dasharray="700"
        stroke-dashoffset="8">
	<animate attributeName="stroke-dashoffset"
            from="800"
			to="150"
			begin="0s"
            dur="2s"
            />
	</path>

<path d="M 140 165 L 140 161 L 137 158 L 134 159 L 130 159 L 127 161 L 124 164 L 119 167 L 114 168 L 108 169 L 102 168 L 94 165 L 98 170 L 102 173 L 106 175 L 112 176 L 118 176 L 125 177 L 131 176 L 135 175 L 139 172 L 140 168 L 140 165 M 141 163 L 142 160 L 145 159 L 148 159 L 152 160 L 156 163 L 163 167 L 171 168 L 176 168 L 182 167 L 187 165 L 184 169 L 181 172 L 176 175 L 169 176 L 161 177 L 153 177 L 146 175 L 142 172 L 141 167 L 141 163 M 137 160 Q 134 160 131 160 Q 128.5 161.5 126 163 Q 123.5 165 121 167 Q 117.5 168 114 169 Q 111 169.5 108 170 Q 104.5 169.5 101 169 Q 98 167.5 95 166 Q 97.5 167.5 100 169 Q 103 169.5 106 170 Q 108 170.5 110 171 Q 115 169.5 120 168 Q 122.5 166.5 125 165 Q 128 163 131 161 Q 134.5 161 138 161 Q 138.5 161.5 139 162 Q 138 162 137 162 Q 134 162 131 162 Q 129 163 127 164 Q 125 164.5 123 165 Q 122 165.5 121 166 Q 119.5 167 118 168 Q 116 168 114 168 Q 112.5 169 111 170 Q 109 169.5 107 169 Q 105 169.5 103 170 Q 101.5 169 100 168 Q 98 167.5 96 167 Q 96 167 96 167 Q 97.5 168 99 169 Q 101.5 169.5 104 170 Q 105 170.5 106 171 Q 108 170.5 110 170 Q 111 170.5 112 171 Q 114 169.5 116 168 Q 119 168 122 168 Q 123 167.5 124 167 Q 126.5 164 129 161 Q 131 161.5 133 162 Q 134.5 161.5 136 161 Q 137 161.5 138 162 Q 135 162.5 132 163 Q 130.5 162.5 129 162 Q 127 164 125 166 Q 123 166.5 121 167 Q 126 165 131 163 Q 133 162.5 135 162 Q 136.5 161 138 160 Q 134.5 160.5 131 161 Q 128.5 161.5 126 162 Q 125 164 124 166 Q 123 167 122 168 Q 119.5 167.5 117 167 Q 117 167.5 117 168 Q 116 169 115 170 Q 113.5 169.5 112 169 Q 109.5 169 107 169 Q 106 169.5 105 170 Q 103.5 169.5 102 169 Q 102.5 168.5 103 168 Q 100 167 97 166 Q 98.5 168 100 170 Q 102 170 104 170 Q 105.5 170.5 107 171 Q 109 171 111 171 Q 113.5 170.5 116 170 Q 119.5 169 123 168 Q 126.5 165.5 130 163 Q 133 162.5 136 162 Q 137.5 162 139 162 Q 138.5 162.5 138 163 Q 136 163 134 163 Q 132 163.5 130 164 Q 128 165.5 126 167 Q 125 167 124 167 Q 126.5 166 129 165 Q 131 165 133 165 Q 135.5 163.5 138 162 Q 138.5 163 139 164 Q 136 164 133 164 Q 131 165 129 166 Q 131 165 133 164 Q 131 164 129 164 Q 133.5 163.5 138 163 Q 136 164 134 165 Q 129 166 124 167 Q 121.5 168.5 119 170 Q 117.5 170 116 170 Q 114 171 112 172 Q 110 171.5 108 171 Q 106.5 171 105 171 Q 103 170.5 101 170 Q 99 169 97 168 Q 98.5 169.5 100 171 Q 102 170.5 104 170 Q 101.5 169.5 99 169 Q 100.5 170 102 171 Q 103.5 171 105 171 Q 107 171.5 109 172 Q 111.5 172 114 172 Q 115 171 116 170 Q 118 169.5 120 169 Q 122 168.5 124 168 Q 126 167.5 128 167 Q 130.5 166 133 165 Q 134.5 165 136 165 Q 137.5 164 139 163 Q 139.5 163.5 140 164 Q 137.5 164.5 135 165 Q 132.5 166 130 167 Q 127.5 167.5 125 168 Q 124 168.5 123 169 Q 121 169.5 119 170 Q 117.5 171 116 172 Q 114.5 171.5 113 171 Q 111.5 171.5 110 172 Q 107.5 172.5 105 173 Q 104.5 171.5 104 170 Q 105.5 171.5 107 173 Q 105 172 103 171 Q 101.5 171 100 171 Q 102.5 171.5 105 172 Q 108 172.5 111 173 Q 112.5 172.5 114 172 Q 116.5 171 119 170 Q 121.5 169.5 124 169 Q 125 169 126 169 Q 128.5 167.5 131 166 Q 131 166 131 166 Q 133.5 165.5 136 165 Q 137 165 138 165 Q 138.5 165 139 165 Q 136.5 165.5 134 166 Q 133.5 165.5 133 165 Q 132 165.5 131 166 Q 130 166.5 129 167 Q 128.5 167.5 128 168 Q 127.5 168.5 127 169 Q 126 169 125 169 Q 123.5 169.5 122 170 Q 120.5 170.5 119 171 Q 118 171.5 117 172 Q 115.5 172 114 172 Q 114 172 114 172 Q 112.5 172.5 111 173 Q 109.5 173 108 173 Q 106 173 104 173 Q 103 172.5 102 172 Q 101 171.5 100 171 Q 99.5 170.5 99 170 Q 99.5 170.5 100 171 Q 102 171.5 104 172 Q 105 172.5 106 173 Q 108 173.5 110 174 Q 111 174 112 174 Q 114 173.5 116 173 Q 118 172 120 171 Q 121.5 170 123 169 Q 125.5 168.5 128 168 Q 130.5 167 133 166 Q 134.5 165.5 136 165 Q 137 165.5 138 166 Q 138 167 138 168 Q 137 168 136 168 Q 134.5 168 133 168 Q 133.5 167.5 134 167 Q 136 165.5 138 164 Q 139 165.5 140 167 Q 139.5 167 139 167 Q 136.5 167.5 134 168 Q 133.5 167.5 133 167 Q 135 166.5 137 166 Q 137.5 166.5 138 167 Q 136 166 134 165 Q 133.5 166 133 167 Q 132.5 167 132 167 Q 130 168 128 169 Q 126.5 169 125 169 Q 123.5 170.5 122 172 Q 119.5 172 117 172 Q 115.5 172 114 172 Q 113 172.5 112 173 Q 108.5 173 105 173 Q 102.5 172 100 171 Q 104.5 171.5 109 172 Q 111 173 113 174 Q 115 173.5 117 173 Q 120 171.5 123 170 Q 125 169.5 127 169 Q 129 169 131 169 Q 133.5 168 136 167 Q 137 166.5 138 166 Q 138.5 167 139 168 Q 137 168 135 168 Q 132.5 168 130 168 Q 129 168 128 168 Q 125 169.5 122 171 Q 120 171.5 118 172 Q 115.5 172 113 172 Q 115 173 117 174 Q 117 174 117 174 Q 116.5 173 116 172 Q 113 173 110 174 Q 107.5 174 105 174 Q 103 173 101 172 Q 100.5 172 100 172 Q 103 172 106 172 Q 107 173 108 174 Q 109.5 174.5 111 175 Q 112.5 175 114 175 Q 117 173.5 120 172 Q 122 171 124 170 Q 125.5 169.5 127 169 Q 129.5 169 132 169 Q 134 168.5 136 168 Q 137 168 138 168 Q 138 168.5 138 169 Q 136.5 169 135 169 Q 132 169 129 169 Q 127 169 125 169 Q 124.5 170 124 171 Q 121 172.5 118 174 Q 116.5 174 115 174 Q 112.5 174.5 110 175 Q 107.5 174.5 105 174 Q 104.5 173 104 172 Q 107 173 110 174 Q 112 174.5 114 175 Q 116 174.5 118 174 Q 119 175 120 176 Q 122 176 124 176 Q 126 175 128 174 Q 130 174 132 174 Q 134 171.5 136 169 Q 136.5 168 137 167 Q 137 166.5 137 166 Q 135.5 168 134 170 Q 132.5 171 131 172 Q 128 172.5 125 173 Q 121.5 173.5 118 174 Q 115 174.5 112 175 Q 111.5 174.5 111 174 Q 114 174.5 117 175 Q 118.5 175 120 175 Q 123 173.5 126 172 Q 128.5 170.5 131 169 Q 133 168.5 135 168 Q 134.5 168 134 168 Q 129 169.5 124 171 Q 121 172.5 118 174 Q 114.5 174.5 111 175 Q 117.5 174 124 173 Q 127 171.5 130 170 Q 132.5 168.5 135 167 Q 133.5 167.5 132 168 Q 128.5 169.5 125 171 Q 123 172.5 121 174 Q 116.5 174.5 112 175 Q 116.5 173.5 121 172 Q 125 172 129 172 Q 131.5 171 134 170 Q 136 168.5 138 167 Q 136 167.5 134 168 Q 131 170.5 128 173 Q 121.5 173.5 115 174 Q 114 173.5 113 173 Q 120.5 172.5 128 172 Q 131 170.5 134 169 Q 134.5 168 135 167 Q 132.5 166.5 130 166 Q 127 168.5 124 171 Q 119.5 173 115 175 Q 110.5 174 106 173 Q 111 172 116 171 Q 121 171 126 171 Q 129.5 170.5 133 170 Q 135 168.5 137 167 Q 132 169 127 171 Q 124.5 172 122 173 Q 115.5 173 109 173 Q 116.5 172 124 171 Q 126.5 170 129 169 Q 132 167 135 165 Q 134 165.5 133 166 Q 128 170.5 123 175 Q 118 175.5 113 176 Q 111.5 175 110 174 Q 110 174 110 174 Q 114.5 174.5 119 175 Q 123 174.5 127 174 Q 129 173 131 172 Q 134.5 170.5 138 169 Q 138.5 167.5 139 166 Q 139.5 165 140 164 Q 139.5 166.5 139 169 Q 137.5 170.5 136 172 Q 130.5 172.5 125 173 Q 122.5 173.5 120 174 Q 116.5 174 113 174 Q 113.5 174.5 114 175 Q 116 175 118 175 Q 120.5 175 123 175 Q 125 175 127 175 Q 129.5 174.5 132 174 Q 134 172 136 170 Q 137 169 138 168 Q 137 169.5 136 171 Q 131.5 172.5 127 174 Q 124 174.5 121 175 Q 117.5 175 114 175 Q 116 175 118 175 Q 121.5 175 125 175 Q 127 175.5 129 176 Q 131.5 174.5 134 173 Q 135.5 171.5 137 170 Q 138 168.5 139 167 Q 139 167 139 167 Q 139 167 139 167 Q 139 169 139 171 Q 138.5 171 138 171 Q 136.5 171.5 135 172 Q 134 172.5 133 173 Q 132.5 174 132 175 Q 128.5 175 125 175 Q 122.5 175 120 175 Q 118 174.5 116 174 Q 114.5 174.5 113 175 Q 113 175 113 175 Q 116 175.5 119 176 Q 121.5 176 124 176 Q 126 176 128 176 Q 130 175 132 174 Q 135.5 172 139 170 Q 138.5 170 138 170 Q 137 171.5 136 173 Q 134.5 173.5 133 174 Q 131.5 174 130 174 Q 127 174 124 174 Q 125 173.5 126 173 Q 129 173.5 132 174 Q 133 174 134 174 Q 136.5 172.5 139 171 Q 138.5 171 138 171 Q 136.5 172.5 135 174 Q 133.5 174.5 132 175 Q 130.5 175.5 129 176 Q 127 176 125 176 Q 123.5 176 122 176 Q 123 175.5 124 175 Q 122.5 175 121 175 Q 122.5 176 124 177 Q 124.5 176 125 175 Q 126.5 175.5 128 176 Q 131.5 175 135 174 Q 136 173.5 137 173 Q 137.5 172.5 138 172 Q 137 165.5 136 159 Q 134 159 132 159 Q 130.5 160 129 161 Q 129.5 160.5 130 160 Q 133 159.5 136 159 Q 137.5 160 139 161 Q 139.5 164 140 167 Q 137 169.5 134 172 Q 132 171 130 170 Q 127.5 168.5 125 167 Q 128 165 131 163 Q 134 163 137 163 Q 136 166 135 169 Q 132.5 170.5 130 172 Q 131 172.5 132 173 Q 135 167.5 138 162 M 143 160 L 145 160 L 149 161 L 153 162 L 155 165 L 157 167 L 165 170 L 171 170 L 177 170 L 179 169 L 184 168 L 185 167 L 185 166 L 180 169 L 175 168 L 172 168 L 166 169 L 164 169 L 164 169 L 159 167 L 157 165 L 155 164 L 153 162 L 153 162 L 145 159 L 145 159 L 152 161 L 154 161 L 156 165 L 158 166 L 159 168 L 164 168 L 166 170 L 168 170 L 170 169 L 174 169 L 177 169 L 178 170 L 182 169 L 184 167 L 185 166 L 180 168 L 177 169 L 173 170 L 169 170 L 164 168 L 162 168 L 159 167 L 156 166 L 155 164 L 158 166 L 162 168 L 165 168 L 169 169 L 168 169 L 162 168 L 160 166 L 158 165 L 156 164 L 155 164 L 153 162 L 151 161 L 145 159 L 145 160 L 148 160 L 151 160 L 153 161 L 154 162 L 155 163 L 157 165 L 159 165 L 161 166 L 163 168 L 164 168 L 167 168 L 171 169 L 173 169 L 176 168 L 178 169 L 180 169 L 183 168 L 181 169 L 175 170 L 171 170 L 168 169 L 173 169 L 178 169 L 183 167 L 186 166 L 177 170 L 169 171 L 164 169 L 160 168 L 158 167 L 157 167 L 153 164 L 152 162 L 150 161 L 148 161 L 145 160 L 143 160 L 142 161 L 143 162 L 146 161 L 148 161 L 152 164 L 154 166 L 155 166 L 149 162 L 145 161 L 143 161 L 146 160 L 149 162 L 153 163 L 150 162 L 152 164 L 146 163 L 143 161 L 150 164 L 153 166 L 156 167 L 152 165 L 146 161 L 151 164 L 156 166 L 161 168 L 160 170 L 162 171 L 168 171 L 172 171 L 175 170 L 177 170 Q 178 170 179 170 Q 180.5 170 182 170 Q 183 169 184 168 Q 184.5 167.5 185 167 Q 182.5 169 180 171 Q 179 171.5 178 172 Q 177.5 171.5 177 171 Q 175.5 171 174 171 Q 176 170.5 178 170 Q 179.5 169.5 181 169 Q 179.5 170 178 171 Q 176.5 171 175 171 Q 174 171 173 171 Q 172 171 171 171 Q 168.5 170.5 166 170 Q 165 170 164 170 Q 163.5 170.5 163 171 Q 163 171 163 171 Q 161 170 159 169 Q 160 169 161 169 Q 163 170 165 171 Q 167 171.5 169 172 Q 169.5 171.5 170 171 Q 171.5 171 173 171 Q 174.5 171 176 171 Q 177.5 171 179 171 Q 180 170.5 181 170 Q 178 170.5 175 171 Q 174 171.5 173 172 Q 172 172 171 172 Q 169.5 171.5 168 171 Q 166.5 170.5 165 170 Q 164.5 170 164 170 Q 162 170 160 170 Q 159 169.5 158 169 Q 157.5 168.5 157 168 Q 158.5 168.5 160 169 Q 161 169.5 162 170 Q 159.5 168.5 157 167 Q 156 166.5 155 166 Q 156 167 157 168 Q 158.5 169 160 170 Q 158.5 169.5 157 169 Q 155.5 168 154 167 Q 153.5 166.5 153 166 Q 154.5 167 156 168 Q 157.5 169 159 170 Q 160 170 161 170 Q 158 169 155 168 Q 153 167 151 166 Q 150 165.5 149 165 Q 152.5 167.5 156 170 Q 155.5 169 155 168 Q 153 167 151 166 Q 150 165 149 164 Q 150 164 151 164 Q 152 165.5 153 167 Q 154 167.5 155 168 Q 152 166 149 164 Q 147 163 145 162 Q 144.5 162 144 162 Q 146.5 163.5 149 165 Q 150 165 151 165 Q 148 163.5 145 162 Q 144 161.5 143 161 Q 143.5 162.5 144 164 Q 146 164.5 148 165 Q 149 165 150 165 Q 147 164 144 163 Q 146.5 164 149 165 Q 150.5 166 152 167 Q 153 168 154 169 Q 155.5 170 157 171 Q 159 170.5 161 170 Q 161.5 170 162 170 Q 158.5 169 155 168 Q 157 170 159 172 Q 160.5 172 162 172 Q 159.5 171 157 170 Q 155 169 153 168 Q 151 166 149 164 Q 147 164 145 164 Q 144 163 143 162 Q 146.5 164 150 166 Q 153 167 156 168 Q 157.5 169.5 159 171 Q 161.5 171 164 171 Q 163 171 162 171 Q 164 171.5 166 172 Q 167 171.5 168 171 Q 166 171.5 164 172 Q 162.5 172 161 172 Q 163 172 165 172 Q 167.5 172 170 172 Q 171.5 171.5 173 171 Q 173 171 173 171 Q 174.5 171.5 176 172 Q 177.5 171.5 179 171 Q 177.5 171 176 171 Q 174.5 171.5 173 172 Q 177 171.5 181 171 Q 182 169.5 183 168 Q 183.5 168 184 168 Q 183 169 182 170 Q 181 171 180 172 Q 179 172.5 178 173 Q 177.5 173.5 177 174 Q 178.5 172 180 170 Q 179.5 171 179 172 Q 177 172.5 175 173 Q 173.5 172.5 172 172 Q 174.5 172 177 172 Q 177 172.5 177 173 Q 177 173.5 177 174 Q 175.5 174 174 174 Q 174.5 173.5 175 173 Q 174.5 173 174 173 Q 172.5 173 171 173 Q 170 172.5 169 172 Q 169 172 169 172 Q 172 172.5 175 173 Q 176.5 173 178 173 Q 176 173 174 173 Q 171.5 173 169 173 Q 171.5 173 174 173 Q 176 173 178 173 Q 178 172.5 178 172 Q 176 172 174 172 Q 174 171.5 174 171 Q 175.5 172.5 177 174 Q 176.5 173 176 172 Q 176 170.5 176 169 Q 175 172 174 175 Q 173 174.5 172 174 Q 173.5 173 175 172 Q 177.5 171.5 180 171 Q 178.5 171 177 171 Q 173.5 172.5 170 174 Q 169 173.5 168 173 Q 166 173 164 173 Q 166 173 168 173 Q 171.5 172.5 175 172 Q 177 171.5 179 171 Q 173 171.5 167 172 Q 166 172.5 165 173 Q 166 173 167 173 Q 169 173 171 173 Q 172.5 172.5 174 172 Q 170 172.5 166 173 Q 166 173 166 173 Q 166 172.5 166 172 Q 167.5 172.5 169 173 Q 169.5 173 170 173 Q 167 173 164 173 Q 162.5 173 161 173 Q 161.5 172.5 162 172 Q 163.5 172.5 165 173 Q 166 173 167 173 Q 168.5 173.5 170 174 Q 171 173 172 172 Q 173 173 174 174 Q 172 173.5 170 173 Q 169.5 172.5 169 172 Q 168.5 173 168 174 Q 167 173.5 166 173 Q 165.5 172 165 171 Q 165 172.5 165 174 Q 163.5 173.5 162 173 Q 162 172.5 162 172 Q 162 172 162 172 Q 160.5 172.5 159 173 Q 158.5 172 158 171 Q 158 171 158 171 Q 156.5 171 155 171 Q 154.5 170 154 169 Q 153 168.5 152 168 Q 151 167.5 150 167 Q 149 166 148 165 Q 147 165 146 165 Q 145 164.5 144 164 Q 143.5 163.5 143 163 Q 142.5 162.5 142 162 Q 141.5 163 141 164 Q 142.5 164 144 164 Q 144 164 144 164 Q 143 163 142 162 Q 142 163 142 164 Q 143 163.5 144 163 Q 143.5 162.5 143 162 Q 143 161.5 143 161 Q 142.5 162 142 163 Q 142.5 163.5 143 164 Q 144 164.5 145 165 Q 146.5 165.5 148 166 Q 149 166 150 166 Q 151 167.5 152 169 Q 153.5 169 155 169 Q 156.5 170.5 158 172 Q 160 172.5 162 173 Q 164 173.5 166 174 Q 168.5 173.5 171 173 Q 172 173 173 173 L 174 174 L 177 174 L 178 172 L 177 174 L 174 175 L 171 175 L 174 173 L 175 174 L 173 175 L 169 174 L 169 174 L 173 174 L 170 175 L 169 175 L 164 174 L 160 173 L 158 172 L 157 172 L 153 170 L 151 169 L 147 166 L 145 165 L 143 164 L 142 165 L 143 166 L 145 166 L 142 165 L 142 164 L 143 165 L 147 167 L 151 167 L 153 168 L 153 170 L 156 172 L 159 173 L 162 174 L 165 175 L 168 174 L 171 174 L 171 174 L 166 176 L 162 175 L 158 173 L 154 171 L 151 169 L 146 168 L 145 166 L 143 165 L 141 165 L 141 167 L 145 169 L 148 169 L 149 168 L 152 168 L 155 171 L 158 173 L 162 175 L 165 174 L 168 175 L 169 175 L 162 175 L 152 169 L 148 166 L 145 165 L 144 167 L 142 167 L 144 166 L 148 169 L 149 165 L 146 167 L 143 167 L 142 164 L 141 166 L 143 169 L 146 166 L 149 166 L 149 168 L 144 168 L 141 166 L 141 165 L 148 168 L 153 169 L 151 166 L 143 164 L 142 166 L 143 171 L 144 173 L 146 174 L 149 175 L 154 175 L 156 176 L 160 176 L 163 175 L 167 175 L 169 175 L 169 175 L 170 175 L 161 171 L 153 171 L 147 169 L 143 169 L 143 171 L 145 173 L 150 176 L 153 176 L 156 176 L 159 176 L 163 176 L 166 176 L 169 175 L 173 174 L 174 174 L 169 173 L 161 173 L 151 172 L 145 169 L 143 169 L 143 169 L 145 171 L 148 173 L 151 175 L 156 175 L 160 175 L 164 175 L 170 175 L 170 175 L 180 173 L 182 171 L 184 169 L 185 168 L 175 170 L 170 169 L 169 168 L 180 170 L 174 170 L 160 171 L 155 169 L 152 168 L 143 169 L 143 167 L 142 166 L 142 170 L 143 171 L 147 173 L 149 175 L 153 175 L 156 174 L 158 175 L 160 175 L 155 175 L 160 175 L 162 175 L 151 169 L 150 169 L 147 170 L 145 169 L 144 170 L 144 171 L 147 173 L 147 172 L 149 173 L 152 175 L 155 174 L 157 175 L 160 176 L 162 174 L 162 174 L 157 172 L 153 171 L 148 169 L 145 170 L 145 171 L 149 173 L 152 174 L 154 175 L 157 175 L 160 174 L 160 174 L 155 171 L 151 170 L 148 170 L 145 170 L 146 173 L 151 173 L 155 174 L 156 174 L 158 174 L 160 173 L 155 169 L 150 170 L 146 171 L 146 172 L 146 171 L 152 173 L 153 173 L 157 173 L 158 173 L 158 173 L 150 171 L 149 171 L 147 171 L 147 171 L 154 173 L 156 174 L 158 174 L 158 173 L 151 170 L 148 171 L 146 166 L 151 167 L 156 173 L 161 173 L 165 170 L 152 168 L 147 165 L 143 168 L 149 171 L 156 172 L 161 173 L 165 171 L 142 168 z" 
stroke="black" fill="transparent" stroke-width="5" stroke-dasharray="700"
        stroke-dashoffset="8">
	<animate attributeName="stroke-dashoffset"
            from="800"
			to="150"
			begin="0s"
            dur="3s"
            />
	</path>

<path d="M 140 137 L 138 132 L 115 131 L 114 133 L 115 140 L 117 146 L 120 151 L 126 152 L 132 151 L 136 148 L 140 142 L 142 141 L 145 145 L 149 150 L 154 153 L 161 150 L 166 144 L 168 137 L 168 131 L 163 130 L 155 131 L 146 132 L 144 135 L 142 138 L 140 138 L 140 137 M 115 134 L 117 133 L 119 133 L 115 137 L 115 139 L 122 133 L 123 133 L 116 142 L 126 134 L 119 145 L 129 134 L 122 149 L 134 133 L 127 150 L 137 134 L 132 147 L 138 142 L 139 136 L 140 139 L 142 140 L 145 135 L 145 142 L 148 133 L 151 132 L 146 144 L 147 146 L 154 130 L 155 132 L 153 139 L 148 147 L 151 149 L 155 141 L 161 130 L 164 131 L 156 142 L 154 149 L 154 151 L 158 146 L 162 138 L 166 133 L 167 135 L 162 142 L 160 147 L 158 150 L 164 144 L 166 140 L 166 137 z" stroke="black" fill="transparent" stroke-width="1" stroke-dasharray="700"
        stroke-dashoffset="8">
	<animate attributeName="stroke-dashoffset"
            from="800"
			to="150"
			begin="0s"
            dur="2s"
            />
	</path>


	
</svg>