<?xml version="1.0" encoding="utf-8"?>
<!-- Generator: Adobe Illustrator 19.0.0, SVG Export Plug-In . SVG Version: 6.00 Build 0)  -->
<svg version="1.1" id="Layer_1" xmlns="http://www.w3.org/2000/svg" xmlns:xlink="http://www.w3.org/1999/xlink" x="0px" y="0px"
	 viewBox="0 0 612 792" xml:space="preserve">

<path id="XMLID_467_" class="st0" d="M517,376.3c0,6.1-0.3,12.1-0.8,18.1c-8.1,95.1-79.8,172.1-172.4,188.3
	c-11.8,2.1-23.9,3.1-36.3,3.1c-13,0-25.7-1.2-38-3.4C172,564.5,98,479,98,376.3c0-115.7,93.8-209.5,209.5-209.5S517,260.6,517,376.3
	z" stroke="black" fill="transparent" stroke-width="1" stroke-dasharray="1500"
        stroke-dashoffset="8">
		<animate attributeName="stroke-dashoffset"
            from="1600"
			to="150"
			begin="0s"
            dur="2s"
            />
	</path>
<path id="XMLID_404_" class="st1" d="M309.8,447.8c0.9,0.9,1.8,1.7,2.7,2.5C311.5,449.6,310.7,448.7,309.8,447.8z" 
stroke="black" fill="transparent" stroke-width="1" stroke-dasharray="1500"
        stroke-dashoffset="8">
		<animate attributeName="stroke-dashoffset"
            from="1600"
			to="150"
			begin="0s"
            dur="2s"
            />
	</path>
<path id="XMLID_457_" class="st2" d="M374.5,363v-7.4h-9.8c0.2,17.1,1,35.9,2.6,56.3h7.2v-6.3c0,0,0-0.1,0-0.1
	c0.8-4,4.3-7.1,8.6-7.2c0.5,0,1,0,1.4,0.1c0.1,0,0.1,0,0.2,0c9.6,0.9,17.1,9,17.1,18.9c0,9.9-7.5,18-17.1,18.9c-0.1,0-0.1,0-0.2,0
	c-0.5,0-1,0.1-1.4,0.1c-4.2-0.1-7.6-3.1-8.5-7c0-0.1,0-0.2-0.1-0.3v-7.4h-6.4c1,11.4,2.3,23.2,3.9,35.4c0,0-31,6-29,60.5
	c0.7,18.7,0.9,42.6,0.8,65.3c-11.8,2.1-23.9,3.1-36.3,3.1c-13,0-25.7-1.2-38-3.4c-0.1-22.6,0.1-46.4,0.8-65c2-54.4-29-60.5-29-60.5
	c1.6-12.2,2.9-24.1,3.9-35.4h-6.3v7.4c0,0.1,0,0.2-0.1,0.3c-0.9,3.9-4.4,6.9-8.5,7c-0.5,0-1,0-1.4-0.1c-0.1,0-0.1,0-0.2,0
	c-9.6-0.9-17.1-9-17.1-18.9c0-9.8,7.5-18,17.1-18.9c0.1,0,0.1,0,0.2,0c0.5,0,1-0.1,1.4-0.1c4.3,0.1,7.8,3.2,8.6,7.2c0,0,0,0.1,0,0.1
	v6.3h7.1c1.6-20.3,2.4-39.2,2.6-56.3h-9.7v7.4c0,0.1,0,0.2-0.1,0.3c-0.9,3.9-4.4,6.9-8.5,7c-0.5,0-1,0-1.4-0.1c-0.1,0-0.1,0-0.2,0
	c-9.6-0.9-17.1-9-17.1-18.9c0-9.8,7.5-18,17.1-18.9c0.1,0,0.1,0,0.2,0c0.5,0,1-0.1,1.4-0.1c4.3,0.1,7.8,3.2,8.6,7.2c0,0,0,0.1,0,0.1
	v6.3h9.8c0-19.9-0.8-37.2-1.8-51.7h-8v7.4c0,0.1,0,0.2-0.1,0.3c-0.9,3.9-4.4,6.9-8.5,7c-0.5,0-1,0-1.4-0.1c-0.1,0-0.1,0-0.2,0
	c-9.6-0.9-17.1-9-17.1-18.9c0-9.9,7.5-18,17.1-18.9c0.1,0,0.1,0,0.2,0c0.5,0,1-0.1,1.4-0.1c4.3,0.1,7.8,3.2,8.6,7.2c0,0,0,0.1,0,0.1
	v6.3h7.2c-1.6-18.2-3.5-30.5-4.5-36.1c-0.3-1.8,1.1-3.4,2.9-3.4h124.3c1.8,0,3.2,1.6,2.9,3.4c-1,5.6-2.9,18-4.5,36.1h7.3v-6.3
	c0,0,0-0.1,0-0.1c0.8-4,4.3-7.1,8.6-7.2c0.5,0,1,0,1.4,0.1c0.1,0,0.1,0,0.2,0c9.6,0.9,17.1,9,17.1,18.9c0,9.8-7.5,18-17.1,18.9
	c-0.1,0-0.1,0-0.2,0c-0.5,0-1,0.1-1.4,0.1c-4.2-0.1-7.6-3.1-8.5-7c0-0.1,0-0.2-0.1-0.3v-7.4h-8c-1,14.4-1.8,31.8-1.8,51.7h9.8v-6.3
	c0,0,0-0.1,0-0.1c0.8-4,4.3-7.1,8.6-7.2c0.5,0,1,0,1.4,0.1c0.1,0,0.1,0,0.2,0c9.6,0.9,17.1,9,17.1,18.9c0,9.9-7.5,18-17.1,18.9
	c-0.1,0-0.1,0-0.2,0c-0.5,0-1,0.1-1.4,0.1c-4.2-0.1-7.6-3.1-8.5-7C374.5,363.2,374.5,363.1,374.5,363z" 
	stroke="black" fill="transparent" stroke-width="1" stroke-dasharray="1500"
        stroke-dashoffset="8">
		<animate attributeName="stroke-dashoffset"
            from="1600"
			to="150"
			begin="0s"
            dur="2s"
            />
	</path>
<path id="XMLID_409_" d="M361.5,394.7c-15.3,16.7-36.3,1.7-36.3,1.7s-6-3-12.4-18c-0.8-1.8-2.5-3-4.5-3h-1.5c-1.9,0-3.7,1.2-4.5,2.9
	C295.9,393,290,396,290,396s-21,15-36.3-1.7c-15.3-16.7-15-44-15-44c33-5,62.3,2.3,62.3,2.3l1.9,7.6c0.5,2.2,2.5,3.7,4.8,3.7l0,0
	c2.3,0,4.2-1.5,4.8-3.7l1.8-7.3c0,0,29.3-7.3,62.3-2.3C376.5,350.7,376.8,378,361.5,394.7z" 
	stroke="black" fill="transparent" stroke-width="1" stroke-dasharray="1500"
        stroke-dashoffset="8">
		<animate attributeName="stroke-dashoffset"
            from="1600"
			to="150"
			begin="0s"
            dur="2s"
            />
	</path>
<path id="XMLID_406_" class="st3" d="M320.8,529.4L306,547l-14.8-17.6c-0.9-1.1-1.8-2.3-2.6-3.5c-3.5-5.4-12-20.1-7.6-28.9
	c4-8.1,17.8-9.1,24.8-9.1c0.5,0,0.9,0,1.3,0c7.2,0.1,20,1.4,23.9,9.1c4.4,8.8-4.1,23.5-7.6,28.9
	C322.6,527.1,321.8,528.3,320.8,529.4z" stroke="black" fill="transparent" stroke-width="1" stroke-dasharray="1500"
        stroke-dashoffset="8">
		<animate attributeName="stroke-dashoffset"
            from="1600"
			to="150"
			begin="0s"
            dur="2s"
            />
	</path>
<path id="XMLID_420_" class="st4" d="M323,524.2c-0.7,1.1-1.5,2.2-2.4,3.2L307,543.6c0.3-0.7,10.4-23,12-48.4c0.2-2.5,2.8-4.1,5.1-3
	c2.6,1.2,4.7,3,5.9,5.4C334.1,505.8,326.2,519.2,323,524.2z" stroke="black" fill="transparent" stroke-width="1" stroke-dasharray="700"
        stroke-dashoffset="8">
		<animate attributeName="stroke-dashoffset"
            from="800"
			to="150"
			begin="0s"
            dur="2s"
            />
	</path>
<path id="XMLID_405_" class="st4" d="M305,543.6l-13.6-16.2c-0.9-1-1.7-2.1-2.4-3.2c-3.2-5-11-18.5-7-26.6c1.8-3.5,5.6-5.6,9.7-6.8
	c0.5-0.2,1.1,0.3,1.1,0.8C293.6,518.5,304.6,542.8,305,543.6z" stroke="black" fill="transparent" stroke-width="1" stroke-dasharray="700"
        stroke-dashoffset="8">
		<animate attributeName="stroke-dashoffset"
            from="800"
			to="150"
			begin="0s"
            dur="2s"
            />
	</path>
<path id="XMLID_410_" class="st5" d="M384,308.9c-0.4,0-0.8,0.1-1.2,0.1c-0.1,0-0.2,0-0.3,0C383.1,309,383.6,309,384,308.9z" stroke="black" fill="transparent" stroke-width="1" stroke-dasharray="700"
        stroke-dashoffset="8">
		<animate attributeName="stroke-dashoffset"
            from="800"
			to="150"
			begin="0s"
            dur="2s"
            />
	</path>
<path id="XMLID_408_" class="st5" d="M384,271.1c-0.5,0-1-0.1-1.4-0.1c0.1,0,0.2,0,0.3,0C383.2,271,383.6,271,384,271.1z" stroke="black" fill="transparent" stroke-width="1" stroke-dasharray="700"
        stroke-dashoffset="8">
		<animate attributeName="stroke-dashoffset"
            from="800"
			to="150"
			begin="0s"
            dur="2s"
            />
	</path>
<g id="XMLID_399_">
	<path id="XMLID_423_" class="st6" d="M190.3,431.9c1.6,3,3.4,5.8,5.5,8.5c8.1,10.6,26.5,18.1,39.8,18.9l32.7,1.5
		c11.3,0.7,22.6-2.9,31.1-10.4c0.1,0,0.1-0.1,0.2-0.1c0.9-0.8,1.8-1.6,2.7-2.5c3.2-3.6,4.9-8.4,4.4-13.7
		c-0.8-8.6-4.4-15.6-12.9-16.4c-5.2-0.5-13.4,1.3-17,4.4c-0.4,0.5-0.9,0.9-1.4,1.3c-12.7,11.8-29.6,18.9-48.2,18.9
		C213.7,442.3,201.1,438.5,190.3,431.9z" stroke="black" fill="transparent" stroke-width="1" stroke-dasharray="700"
        stroke-dashoffset="8">
		<animate attributeName="stroke-dashoffset"
            from="800"
			to="150"
			begin="0s"
            dur="2s"
            />
	</path>
	<path id="XMLID_400_" class="st7" d="M285.9,427.3h7.5c0.8,0,1.7-0.2,2.4-0.7l1.4-0.9c0.5-0.3,0.8-0.8,0.8-1.4l0,0
		c0-0.8-0.6-1.6-1.5-1.7l-3.9-0.5c-0.4-0.1-0.9-0.1-1.3,0c-2.4,0.2-10.2,1.1-13.1,2.6c-3.4,1.8-16.4,14.6-39.7,17.6
		c0,0,19.8-1.4,35.7-10.8C274.1,431.5,281.1,427.3,285.9,427.3z" stroke="black" fill="transparent" stroke-width="1" stroke-dasharray="700"
        stroke-dashoffset="8">
		<animate attributeName="stroke-dashoffset"
            from="800"
			to="150"
			begin="0s"
            dur="2s"
            />
	</path>
</g>
<path id="XMLID_401_" class="st4" d="M309.2,489.3c4.2,0.3,7.4,4.5,7,9.3c-1.9,23.9-9.9,44.2-10.2,44.9c0,0,0,0,0,0s0,0,0,0
	c-0.3-0.7-8.2-21-10.2-44.9c-0.4-4.8,2.7-9,6.9-9.3c1.2-0.1,2.2-0.1,3.1-0.1c0.4,0,0.7,0,1.1,0C307.6,489.3,308.4,489.3,309.2,489.3
	z" stroke="black" fill="transparent" stroke-width="1" stroke-dasharray="700"
        stroke-dashoffset="8">
		<animate attributeName="stroke-dashoffset"
            from="800"
			to="150"
			begin="0s"
            dur="2s"
            />
	</path>

<g id="XMLID_395_">
	<path id="XMLID_193_" class="st8" d="M307.2,288.6c0,5.2-2.3,9.4-7,12.6c-4.7,3.2-11,4.8-19,4.8c-4.6,0-8.7-0.4-12.1-1.1
		c-3.4-0.8-6.7-1.7-9.7-2.9v-12.6h1.6c3,2.2,6.3,3.9,10,5.1c3.7,1.2,7.2,1.8,10.7,1.8c0.9,0,2-0.1,3.5-0.2c1.4-0.1,2.6-0.4,3.5-0.7
		c1.1-0.4,2-1,2.7-1.6c0.7-0.6,1.1-1.6,1.1-2.8c0-1.2-0.5-2.1-1.6-3c-1-0.8-2.6-1.5-4.6-1.9c-2.1-0.5-4.3-0.9-6.7-1.3
		c-2.3-0.4-4.5-0.9-6.6-1.6c-4.7-1.4-8.1-3.4-10.2-5.8c-2.1-2.5-3.1-5.5-3.1-9.1c0-4.9,2.3-8.9,7-12c4.7-3.1,10.7-4.6,18-4.6
		c3.7,0,7.3,0.3,10.9,1s6.7,1.5,9.3,2.5v12.1h-1.5c-2.3-1.7-5-3.1-8.3-4.2c-3.3-1.1-6.6-1.7-10-1.7c-1.2,0-2.4,0.1-3.6,0.2
		c-1.2,0.2-2.3,0.4-3.4,0.9c-1,0.4-1.8,0.9-2.5,1.6c-0.7,0.7-1.1,1.5-1.1,2.4c0,1.4,0.6,2.4,1.7,3.2s3.3,1.4,6.4,2
		c2.1,0.4,4,0.8,5.9,1.2c1.9,0.4,3.9,0.9,6.1,1.5c4.3,1.3,7.5,3.1,9.5,5.4C306.1,282,307.2,285,307.2,288.6z" stroke="black" fill="transparent" stroke-width="1" stroke-dasharray="700"
        stroke-dashoffset="8">
		<animate attributeName="stroke-dashoffset"
            from="800"
			to="150"
			begin="0s"
            dur="2s"
            />
	</path>
	<path id="XMLID_195_" class="st8" d="M357.4,305.1H317v-52.5h14.4v42.3h25.9V305.1z" stroke="black" fill="transparent" stroke-width="1" stroke-dasharray="700"
        stroke-dashoffset="8">
		<animate attributeName="stroke-dashoffset"
            from="800"
			to="150"
			begin="0s"
            dur="2s"
            />
	</path>
</g>
<g id="XMLID_192_">
	<g id="XMLID_508_">
		<path id="XMLID_513_" class="st9" d="M516.2,394.4c-8.1,95.1-79.8,172.1-172.4,188.3c0.1-22.7-0.1-46.6-0.8-65.3
			c-2-54.4,29-60.5,29-60.5c-1.6-12.2-2.9-24.1-3.9-35.4h6.4v7.4c0,0.1,0,0.2,0.1,0.3c0.9,3.9,4.3,6.9,8.5,7c0.5,0,1,0,1.4-0.1
			c0.1,0,0.1,0,0.2,0c9.6-0.9,17.1-9,17.1-18.9c0-9.8-7.5-18-17.1-18.9c-0.1,0-0.1,0-0.2,0c-0.5,0-1-0.1-1.4-0.1
			c-4.3,0.1-7.8,3.2-8.6,7.2c0,0,0,0.1,0,0.1v6.3h-7.2c-0.6-7.8-1.1-15.3-1.5-22.7c5.2-7.9,7.9-17,9.3-24.3c1.3,3.1,4.4,5.4,8,5.5
			c0.5,0,1,0,1.4-0.1c0.1,0,0.1,0,0.2,0c9.6-0.9,17.1-9,17.1-18.9c0-9.8-7.5-18-17.1-18.9c-0.1,0-0.1,0-0.2,0c-0.5,0-1-0.1-1.4-0.1
			c-4.3,0.1-7.8,3.2-8.6,7.2c0,0,0,0.1,0,0.1v6.3h-9.8c0-19.9,0.8-37.2,1.8-51.7h8v7.4c0,0.1,0,0.2,0.1,0.3c0.9,3.9,4.3,6.9,8.5,7
			c0.5,0,1,0,1.4-0.1c0.1,0,0.1,0,0.2,0c9.6-0.9,17.1-9,17.1-18.9c0-9.9-7.5-18-17.1-18.9c-0.1,0-0.1,0-0.2,0c-0.5,0-1-0.1-1.4-0.1
			c-4.3,0.1-7.8,3.2-8.6,7.2c0,0,0,0.1,0,0.1v6.3h-7.3c1.3-14.8,2.8-25.7,3.9-32.3c0.3-2,0.8-5.2-0.4-6.6L516.2,394.4z" stroke="black" fill="transparent" stroke-width="1" stroke-dasharray="700"
        stroke-dashoffset="8">
		<animate attributeName="stroke-dashoffset"
            from="800"
			to="150"
			begin="0s"
            dur="2s"
            />
	</path>
		<path id="XMLID_512_" class="st9" d="M238.9,278.2c-0.2-1.1-0.6-2.1-1.2-3l8.3,8c0,0,0,0,0,0c0,0.5,0.1,0.9,0.1,1.4h-7.2
			L238.9,278.2C238.9,278.3,238.9,278.3,238.9,278.2z" stroke="black" fill="transparent" stroke-width="1" stroke-dasharray="700"
        stroke-dashoffset="8">
		<animate attributeName="stroke-dashoffset"
            from="800"
			to="150"
			begin="0s"
            dur="2s"
            />
	</path>
		<path id="XMLID_511_" class="st9" d="M248.5,331.2l-30.2-26.6c2.8,2.4,6.4,3.9,10.3,4.3c0.1,0,0.1,0,0.2,0c0.5,0,1,0.1,1.4,0.1
			c4.2-0.1,7.6-3.1,8.5-7c0-0.1,0-0.2,0.1-0.3v-7.4h8C247.7,305,248.3,317.3,248.5,331.2z" stroke="black" fill="transparent" stroke-width="1" stroke-dasharray="700"
        stroke-dashoffset="8">
		<animate attributeName="stroke-dashoffset"
            from="800"
			to="150"
			begin="0s"
            dur="2s"
            />
	</path>
		<path id="XMLID_510_" class="st9" d="M238.9,339.6c-0.1-0.6-0.3-1.2-0.5-1.7l8.7,8.1h-8.2L238.9,339.6
			C238.9,339.6,238.9,339.6,238.9,339.6z" stroke="black" fill="transparent" stroke-width="1" stroke-dasharray="700"
        stroke-dashoffset="8">
		<animate attributeName="stroke-dashoffset"
            from="800"
			to="150"
			begin="0s"
            dur="2s"
            />
	</path>
		<path id="XMLID_509_" class="st9" d="M247.7,386.1c-0.1,2.3-0.2,4.7-0.4,7.1l-28.5-26.9c2.8,2.2,6.2,3.6,9.9,4c0.1,0,0.1,0,0.2,0
			c0.5,0,1,0.1,1.4,0.1c4.2-0.1,7.6-3.1,8.5-7c0-0.1,0-0.2,0.1-0.3v-7.4C239.5,362.5,241.4,375.1,247.7,386.1z" stroke="black" fill="transparent" stroke-width="1" stroke-dasharray="700"
        stroke-dashoffset="8">
		<animate attributeName="stroke-dashoffset"
            from="800"
			to="150"
			begin="0s"
            dur="2s"
            />
	</path>
	</g>
</g>
<path id="XMLID_468_" class="st2" d="M237.7,275.2l-3.1-3C235.8,272.9,236.9,274,237.7,275.2z" stroke="black" fill="transparent" stroke-width="1" stroke-dasharray="700"
        stroke-dashoffset="8">
		<animate attributeName="stroke-dashoffset"
            from="800"
			to="150"
			begin="0s"
            dur="2s"
            />
	</path>
<g id="XMLID_396_">
	<path id="XMLID_402_" class="st10" d="M421.8,431.9c-1.6,3-3.4,5.8-5.5,8.5c-8.1,10.6-26.5,18.1-39.8,18.9l-32.7,1.5
		c-11.3,0.7-22.6-2.9-31.1-10.4c-0.1,0-0.1-0.1-0.2-0.1c-0.9-0.8-1.8-1.6-2.7-2.5c-3.2-3.6-4.9-8.4-4.4-13.7
		c0.8-8.6,4.4-15.6,12.9-16.4c5.2-0.5,13.4,1.3,17,4.4c0.4,0.5,0.9,0.9,1.4,1.3c12.7,11.8,29.6,18.9,48.2,18.9
		C398.4,442.3,411,438.5,421.8,431.9z" stroke="black" fill="transparent" stroke-width="1" stroke-dasharray="700"
        stroke-dashoffset="8">
		<animate attributeName="stroke-dashoffset"
            from="800"
			to="150"
			begin="0s"
            dur="2s"
            />
	</path>
	<path id="XMLID_394_" class="st11" d="M326.3,427.3h-7.5c-0.8,0-1.7-0.2-2.4-0.7l-1.4-0.9c-0.5-0.3-0.8-0.8-0.8-1.4l0,0
		c0-0.8,0.6-1.6,1.5-1.7l3.9-0.5c0.4-0.1,0.9-0.1,1.3,0c2.4,0.2,10.2,1.1,13.1,2.6c3.4,1.8,16.4,14.6,39.8,17.6
		c0,0-19.8-1.4-35.8-10.8C338,431.5,331,427.3,326.3,427.3z" stroke="black" fill="transparent" stroke-width="1" stroke-dasharray="700"
        stroke-dashoffset="8">
		<animate attributeName="stroke-dashoffset"
            from="800"
			to="150"
			begin="0s"
            dur="2s"
            />
	</path>
</g>
</svg>
